<?xml version="1.0" encoding="iso-8859-1"?>
<!-- Generator: Adobe Illustrator 19.0.0, SVG Export Plug-In . SVG Version: 6.00 Build 0)  -->
<svg version="1.1" id="&#x56FE;&#x5C42;_1" xmlns="http://www.w3.org/2000/svg" xmlns:xlink="http://www.w3.org/1999/xlink" x="0px"
	 y="0px" viewBox="0 0 32 32" style="enable-background:new 0 0 32 32;" xml:space="preserve">
<path style="fill-rule:evenodd;clip-rule:evenodd;fill:currentColor;" d="M16,31C7.716,31,1,24.284,1,16C1,7.716,7.716,1,16,1
	c8.284,0,15,6.716,15,15C31,24.284,24.284,31,16,31z M18.556,10.383c0.214-0.214,0.214-0.561,0-0.774
	c-0.214-0.214-0.562-0.214-0.777,0l-6.534,5.969c-0.114,0.114-0.163,0.265-0.155,0.415c-0.008,0.149,0.041,0.301,0.155,0.415
	l6.534,5.968c0.214,0.214,0.562,0.214,0.777,0c0.214-0.214,0.214-0.561,0-0.774l-6.141-5.609L18.556,10.383z"/>
</svg>
