<?xml version="1.0" encoding="iso-8859-1"?>
<!-- Generator: Adobe Illustrator 19.0.0, SVG Export Plug-In . SVG Version: 6.00 Build 0)  -->
<svg version="1.1" id="&#x56FE;&#x5C42;_1" xmlns="http://www.w3.org/2000/svg" xmlns:xlink="http://www.w3.org/1999/xlink" x="0px"
	 y="0px" viewBox="0 0 32 32" style="enable-background:new 0 0 32 32;" xml:space="preserve">
<path style="fill-rule:evenodd;clip-rule:evenodd;fill:currentColor;" d="M26.293,31H5.215C2.887,31,1,29.113,1,26.785V5.707
	C1,3.379,2.958,1,5.286,1h11.786v2.143H5.286c-1.164,0-2.143,0.979-2.143,2.143L3.108,26.785c0,1.164,0.944,2.107,2.108,2.107
	l21.499-0.035c1.164,0,2.143-0.979,2.143-2.143V14.929H31v11.786C31,29.042,28.621,31,26.293,31z M29.929,10.643
	c-0.608,0.001-1.072-0.492-1.071-1.071l-0.032-5.12L12.52,20.003c-0.428,0.408-1.121,0.408-1.548,0
	c-0.428-0.408-0.428-1.069,0-1.477L27.137,3.108l-4.708,0.034c-0.608,0.001-1.072-0.492-1.071-1.071
	c0.001-0.58,0.464-1.07,1.071-1.071h7.477C30.513,0.999,31.001,1.464,31,2.044v7.527C30.999,10.151,30.536,10.642,29.929,10.643z"/>
</svg>
