<?xml version="1.0" encoding="iso-8859-1"?>
<!-- Generator: Adobe Illustrator 19.0.0, SVG Export Plug-In . SVG Version: 6.00 Build 0)  -->
<svg version="1.1" id="&#x56FE;&#x5C42;_1" xmlns="http://www.w3.org/2000/svg" xmlns:xlink="http://www.w3.org/1999/xlink" x="0px"
	 y="0px" viewBox="0 0 32 32" style="enable-background:new 0 0 32 32;" xml:space="preserve">
<g>
	<g id="XMLID_49_">
		<path id="XMLID_50_" style="fill:currentColor;" d="M24.256,19.533c-1.651,0-2.99,1.326-2.99,2.961c0,1.636,1.339,2.961,2.99,2.961
			c1.651,0,2.99-1.325,2.99-2.961C27.246,20.858,25.907,19.533,24.256,19.533z M5.948,19.533c-1.652,0-2.99,1.326-2.99,2.961
			c0,1.636,1.338,2.961,2.99,2.961c1.651,0,2.99-1.325,2.99-2.961C8.937,20.858,7.599,19.533,5.948,19.533z M28.902,6.546H15.171
			c-1.009,0-1.827,0.81-1.827,1.81v6.773c0,0.999,0.818,1.81,1.827,1.81h13.731c1.009,0,1.827-0.81,1.827-1.81V8.355
			C30.73,7.356,29.912,6.546,28.902,6.546z M30.072,18.924H27.09c1.017,0.793,1.684,2.001,1.745,3.367h1.238
			C30.82,22.291,31.069,18.924,30.072,18.924z M21.375,18.924H11.142c0.305-1.449,0-8.75,0-10.844c0-0.486-0.302-0.609-1.16-0.629
			c-0.123-0.003-0.257,0-0.403,0C9.19,7.453,8.763,7.46,8.316,7.465C6.531,7.487,6.188,7.428,4.958,8.081
			c-1.584,0.839-2.469,2.738-2.99,4.441c-1.073,3.702-1.84,9.256-0.597,9.732c0.127-2.398,2.124-4.305,4.577-4.305
			c2.465,0,4.471,1.927,4.578,4.341h9.151c0.061-1.362,0.724-2.568,1.736-3.36C21.401,18.928,21.39,18.924,21.375,18.924z"/>
	</g>
</g>
</svg>
