<?xml version="1.0" encoding="iso-8859-1"?>
<!-- Generator: Adobe Illustrator 19.0.0, SVG Export Plug-In . SVG Version: 6.00 Build 0)  -->
<svg version="1.1" id="&#x56FE;&#x5C42;_1" xmlns="http://www.w3.org/2000/svg" xmlns:xlink="http://www.w3.org/1999/xlink" x="0px"
	 y="0px" viewBox="0 0 32 32" style="enable-background:new 0 0 32 32;" xml:space="preserve">
<g>
	<path id="XMLID_5_" style="fill-rule:evenodd;clip-rule:evenodd;fill:currentColor;" d="M30.589,8.322
		c-0.398-0.529-1.035-0.833-1.746-0.833H13.47c-0.669,0-1.211,0.542-1.211,1.211c0,0.669,0.542,1.211,1.211,1.211h15.009
		L25.9,18.866c-0.04,0.141-0.279,0.32-0.425,0.32H12.077c-0.132,0-0.342-0.163-0.374-0.291L7.9,3.791
		c-0.305-1.21-1.475-2.122-2.722-2.122H2.211C1.542,1.669,1,2.211,1,2.88c0,0.669,0.542,1.211,1.211,1.211h2.967
		c0.132,0,0.342,0.163,0.374,0.291l3.803,15.104c0.305,1.21,1.475,2.122,2.722,2.122h13.398c1.229,0,2.412-0.891,2.752-2.072
		l2.679-9.305C31.103,9.547,30.987,8.851,30.589,8.322L30.589,8.322z"/>
	<path style="fill-rule:evenodd;clip-rule:evenodd;fill:currentColor;" d="M12.758,23.279c-1.914,0-3.471,1.582-3.471,3.526
		c0,1.944,1.557,3.526,3.471,3.526s3.471-1.582,3.471-3.526C16.229,24.861,14.672,23.279,12.758,23.279L12.758,23.279z
		 M12.758,27.909c-0.579,0-1.049-0.496-1.049-1.105c0-0.609,0.471-1.105,1.049-1.105c0.579,0,1.049,0.495,1.049,1.105
		C13.808,27.414,13.337,27.909,12.758,27.909L12.758,27.909z"/>
	<path style="fill-rule:evenodd;clip-rule:evenodd;fill:currentColor;" d="M24.06,23.279c-1.914,0-3.471,1.582-3.471,3.526
		c0,1.944,1.557,3.526,3.471,3.526s3.471-1.582,3.471-3.526C27.531,24.861,25.973,23.279,24.06,23.279L24.06,23.279z M24.06,27.909
		c-0.579,0-1.049-0.496-1.049-1.105c0-0.609,0.471-1.105,1.049-1.105c0.579,0,1.049,0.495,1.049,1.105
		C25.109,27.414,24.638,27.909,24.06,27.909L24.06,27.909z"/>
</g>
</svg>
