<?xml version="1.0" encoding="iso-8859-1"?>
<!-- Generator: Adobe Illustrator 19.0.0, SVG Export Plug-In . SVG Version: 6.00 Build 0)  -->
<svg version="1.1" id="&#x56FE;&#x5C42;_1" xmlns="http://www.w3.org/2000/svg" xmlns:xlink="http://www.w3.org/1999/xlink" x="0px"
	 y="0px" viewBox="0 0 32 32" style="enable-background:new 0 0 32 32;" xml:space="preserve">
<path style="fill-rule:evenodd;clip-rule:evenodd;fill:currentColor;" d="M30.665,28.734c-0.367,0.265-0.883,0.185-1.154-0.177
	l-4.046-5.751c-2.047,1.177-4.502,1.696-7.033,1.309c-5.858-0.898-9.892-6.298-9.008-12.064c0.883-5.765,6.348-9.711,12.207-8.813
	c5.858,0.897,9.892,6.299,9.008,12.064c-0.413,2.696-1.835,4.984-3.824,6.575l4.025,5.722C31.109,27.96,31.031,28.469,30.665,28.734
	z M29.37,13.404c0-5.137-4.164-9.301-9.301-9.301s-9.301,4.164-9.301,9.301s4.164,9.301,9.301,9.301S29.37,18.541,29.37,13.404z
	 M1,26.438h7.973v1.595H1V26.438z M1,4.115h7.973v1.595H1V4.115z M6.581,16.871H1v-1.594h5.581V16.871z"/>
</svg>
