<?xml version="1.0" encoding="iso-8859-1"?>
<!-- Generator: Adobe Illustrator 19.0.0, SVG Export Plug-In . SVG Version: 6.00 Build 0)  -->
<svg version="1.1" id="&#x56FE;&#x5C42;_1" xmlns="http://www.w3.org/2000/svg" xmlns:xlink="http://www.w3.org/1999/xlink" x="0px"
	 y="0px" viewBox="0 0 32 32" style="enable-background:new 0 0 32 32;" xml:space="preserve">
<g>
	<g id="XMLID_57_">
		<path id="XMLID_58_" style="fill-rule:evenodd;clip-rule:evenodd;fill:currentColor;" d="M16.257,9.954
			c-0.432,0-0.782,0.707-0.782,1.58v12.622c0,0.873,0.35,1.58,0.782,1.58c0.432,0,0.782-0.707,0.782-1.58V11.534
			C17.039,10.661,16.689,9.954,16.257,9.954z M11.045,9.954c-0.432,0-0.782,0.707-0.782,1.58v12.622c0,0.873,0.35,1.58,0.782,1.58
			c0.432,0,0.782-0.707,0.782-1.58V11.534C11.827,10.661,11.477,9.954,11.045,9.954z M21.469,9.954c-0.432,0-0.782,0.707-0.782,1.58
			v12.622c0,0.873,0.35,1.58,0.782,1.58c0.432,0,0.782-0.707,0.782-1.58V11.534C22.251,10.661,21.901,9.954,21.469,9.954z
			 M29.548,4.947c0-0.436-0.701-0.789-1.565-0.789h-3.647V2.053C24.336,1.471,23.869,1,23.294,1H9.221
			C8.645,1,8.178,1.471,8.178,2.053v2.105H4.016c-0.864,0-1.565,0.353-1.565,0.789c0,0.436,0.701,0.789,1.565,0.789H4.75
			C4.61,6.06,4.53,6.415,4.53,6.789v21.579C4.53,29.822,5.697,31,7.136,31h18.243c1.439,0,2.606-1.178,2.606-2.632V6.789
			c0-0.375-0.08-0.73-0.22-1.053h0.219C28.848,5.737,29.548,5.383,29.548,4.947z M26.421,28.368c0,0.581-0.467,1.053-1.042,1.053
			H7.136c-0.576,0-1.042-0.471-1.042-1.053V6.789c0-0.581,0.467-1.053,1.042-1.053h18.243c0.576,0,1.042,0.471,1.042,1.053V28.368z"
			/>
	</g>
</g>
</svg>
