<?xml version="1.0" encoding="iso-8859-1"?>
<!-- Generator: Adobe Illustrator 19.0.0, SVG Export Plug-In . SVG Version: 6.00 Build 0)  -->
<svg version="1.1" id="&#x56FE;&#x5C42;_1" xmlns="http://www.w3.org/2000/svg" xmlns:xlink="http://www.w3.org/1999/xlink" x="0px"
	 y="0px" viewBox="0 0 32 32" style="enable-background:new 0 0 32 32;" xml:space="preserve">
<path style="fill-rule:evenodd;clip-rule:evenodd;fill:#FFFFFF;" d="M5.863,21.547L17.114,2.06c0.618-1.071,1.706-1.355,2.767-0.741
	l5.264,3.039c1.061,0.613,1.359,1.696,0.741,2.767l-11.25,19.486L7.55,30.781c-1.001,0.511-1.696,0.11-1.754-1.013L5.863,21.547
	 M7.725,22.373l-0.031,6.131l5.294-3.092L7.725,22.373 M23.625,6.99c0.527-0.904,0.486-0.881-0.371-1.384L19.745,3.58
	c-0.843-0.524-0.911-0.512-1.384,0.371L16.336,7.46l5.264,3.039L23.625,6.99z M14.002,23.657l6.584-11.404l-5.264-3.039
	L8.738,20.619C9.249,20.914,12.201,22.617,14.002,23.657z"/>
</svg>
