<?xml version="1.0" encoding="iso-8859-1"?>
<!-- Generator: Adobe Illustrator 19.0.0, SVG Export Plug-In . SVG Version: 6.00 Build 0)  -->
<svg version="1.1" id="&#x56FE;&#x5C42;_1" xmlns="http://www.w3.org/2000/svg" xmlns:xlink="http://www.w3.org/1999/xlink" x="0px"
	 y="0px" viewBox="0 0 32 32" style="enable-background:new 0 0 32 32;" xml:space="preserve">
<g>
	<path style="fill-rule:evenodd;clip-rule:evenodd;fill:currentColor;" d="M30.622,13.153L17.947,3.135c-1.091-0.864-2.803-0.863-3.893,0
		L1.38,13.153c-0.433,0.343-0.507,0.972-0.165,1.405c0.342,0.433,0.957,0.507,1.39,0.165L3,14.399v12.113c0,1.717,1.809,3,3.4,3
		h20.002c1.572,0,2.6-1.206,2.6-3V14.446l0.365,0.277c0.184,0.145,0.41,0.215,0.627,0.215c0.295,0,0.591-0.13,0.788-0.38
		C31.125,14.125,31.056,13.496,30.622,13.153L30.622,13.153z M15.001,27.512v-5.544c0-0.276,0.5-0.414,1-0.414
		c0.5,0,1,0.138,1,0.414v5.544H15.001L15.001,27.512z M27.002,26.512c0,0.663-0.183,1-0.6,1h-7.381c0-0.015-0.02-0.027-0.02-0.042
		v-5.502c0-1.163-0.938-2.415-3-2.415s-3,1.252-3,2.415v5.502c0,0.015,0.027,0.027,0.027,0.042H6.4c-0.627,0-1.4-0.542-1.4-1V12.818
		l10.28-8.114c0.369-0.292,1.035-0.292,1.405,0l10.317,8.161V26.512L27.002,26.512z"/>
</g>
</svg>
