<?xml version="1.0" standalone="no"?><!DOCTYPE svg PUBLIC "-//W3C//DTD SVG 1.1//EN" "http://www.w3.org/Graphics/SVG/1.1/DTD/svg11.dtd"><svg width="200" height="200" viewBox="0 0 200 200" version="1.1" xmlns="http://www.w3.org/2000/svg" xmlns:xlink="http://www.w3.org/1999/xlink"><defs><style type="text/css"><![CDATA[
@font-face { font-family: ifont; src: url(http://at.alicdn.com/t/font_1442373896_4754455.eot?#iefix) format(embedded-opentype), url(http://at.alicdn.com/t/font_1442373896_4754455.woff) format(woff), url(http://at.alicdn.com/t/font_1442373896_4754455.ttf) format(truetype), url(http://at.alicdn.com/t/font_1442373896_4754455.svg#ifont) format(svg); }

]]></style></defs><g class="transform-group"><g transform="scale(0.1953125, 0.1953125)"><path d="M512 934.747309c-233.102628 0-422.747309-189.646093-422.747309-422.747309S278.897372 89.252691 512 89.252691 934.747309 278.897372 934.747309 512c0 91.3496-29.425871 175.787584-78.87539 244.991227l56.530467 56.533289c63.468894-84.072507 101.595667-188.304127 101.595667-301.524517 0-276.806107-225.193358-501.999465-501.999465-501.999465S10.000535 235.193893 10.000535 512s225.193358 501.999465 501.999465 501.999465c102.280056 0 197.404374-30.89907 276.832919-83.633652l-57.598677-57.600088C667.212193 911.822421 592.32601 934.747309 512 934.747309z" fill="#272636"></path></g></g></svg>
