<?xml version="1.0" encoding="iso-8859-1"?>
<!-- Generator: Adobe Illustrator 19.0.0, SVG Export Plug-In . SVG Version: 6.00 Build 0)  -->
<svg version="1.1" id="&#x56FE;&#x5C42;_1" xmlns="http://www.w3.org/2000/svg" xmlns:xlink="http://www.w3.org/1999/xlink" x="0px"
	 y="0px" viewBox="0 0 32 32" style="enable-background:new 0 0 32 32;" xml:space="preserve">
<path style="fill-rule:evenodd;clip-rule:evenodd;fill:currentColor;" d="M19.254,16l11.297,11.297c0.599,0.599,0.599,1.57,0,2.169
	l-1.085,1.085c-0.599,0.599-1.57,0.599-2.17,0L16,19.254L4.703,30.551c-0.599,0.599-1.57,0.599-2.17,0l-1.085-1.085
	c-0.599-0.599-0.599-1.57,0-2.169L12.746,16L1.449,4.703c-0.599-0.599-0.599-1.57,0-2.17l1.085-1.085c0.599-0.599,1.57-0.599,2.17,0
	L16,12.746L27.296,1.449c0.599-0.599,1.57-0.599,2.17,0l1.085,1.085c0.599,0.599,0.599,1.57,0,2.17L19.254,16z"/>
</svg>
