<?xml version="1.0" encoding="iso-8859-1"?>
<!-- Generator: Adobe Illustrator 19.0.0, SVG Export Plug-In . SVG Version: 6.00 Build 0)  -->
<svg version="1.1" id="&#x56FE;&#x5C42;_1" xmlns="http://www.w3.org/2000/svg" xmlns:xlink="http://www.w3.org/1999/xlink" x="0px"
	 y="0px" viewBox="0 0 32 32" style="enable-background:new 0 0 32 32;" xml:space="preserve">
<g>
	<g id="XMLID_12_">
		<path id="XMLID_13_" style="fill:none;stroke:currentColor;stroke-width:2;stroke-miterlimit:10;" d="M29.067,24.131
			c-1.436-3.753-4.46-6.71-8.159-8.11c1.805-1.444,2.966-3.66,2.966-6.146C23.875,5.533,20.342,2,16,2
			c-4.342,0-7.875,3.533-7.875,7.875c0,2.483,1.161,4.697,2.962,6.141c-3.724,1.397-6.708,4.334-8.155,8.115l-0.058,0.151v3.093
			c0,0.702,0.273,1.361,0.769,1.856C4.139,29.727,4.798,30,5.5,30h21c0.702,0,1.361-0.273,1.856-0.769
			c0.496-0.496,0.769-1.155,0.769-1.857v-3.093L29.067,24.131z"/>
	</g>
</g>
</svg>
