<?xml version="1.0" encoding="iso-8859-1"?>
<!-- Generator: Adobe Illustrator 19.0.0, SVG Export Plug-In . SVG Version: 6.00 Build 0)  -->
<svg version="1.1" id="&#x56FE;&#x5C42;_1" xmlns="http://www.w3.org/2000/svg" xmlns:xlink="http://www.w3.org/1999/xlink" x="0px"
	 y="0px" viewBox="0 0 32 32" style="enable-background:new 0 0 32 32;" xml:space="preserve">
<g>
	<g id="XMLID_55_">
		<path id="XMLID_56_" style="fill:currentColor;" d="M16,1C9.277,1,3.808,6.469,3.808,13.192c0,2.448,0.724,4.81,2.053,6.767
			c2.605,4.583,7.101,8.586,9.549,10.565L16,31l0.589-0.476c2.448-1.978,6.944-5.981,9.511-10.502
			c1.368-2.02,2.092-4.382,2.092-6.83C28.192,6.469,22.723,1,16,1z M24.508,19.032c-2.259,3.974-6.086,7.531-8.508,9.549
			c-2.422-2.018-6.252-5.58-8.547-9.612c-1.158-1.708-1.769-3.706-1.769-5.778C5.684,7.503,10.312,2.876,16,2.876
			c5.688,0,10.316,4.628,10.316,10.316C26.316,15.263,25.704,17.261,24.508,19.032z M16,6.94c-3.62,0-6.565,2.945-6.565,6.565
			c0,3.62,2.945,6.565,6.565,6.565s6.565-2.945,6.565-6.565C22.565,9.885,19.62,6.94,16,6.94z M16,18.194
			c-2.585,0-4.689-2.104-4.689-4.689S13.415,8.815,16,8.815c2.586,0,4.689,2.104,4.689,4.689S18.586,18.194,16,18.194z"/>
	</g>
</g>
</svg>
