<?xml version="1.0" encoding="iso-8859-1"?>
<!-- Generator: Adobe Illustrator 19.0.0, SVG Export Plug-In . SVG Version: 6.00 Build 0)  -->
<svg version="1.1" id="&#x56FE;&#x5C42;_1" xmlns="http://www.w3.org/2000/svg" xmlns:xlink="http://www.w3.org/1999/xlink" x="0px"
	 y="0px" viewBox="0 0 32 32" style="enable-background:new 0 0 32 32;" xml:space="preserve">
<path style="fill-rule:evenodd;clip-rule:evenodd;fill:currentColor;" d="M1.732,31V1h28.537v30H1.732z M26.244,5.39H6.488
	c-1.01,0-1.829,0.819-1.829,1.829s0.819,1.829,1.829,1.829h19.756c1.01,0,1.829-0.819,1.829-1.829S27.254,5.39,26.244,5.39z
	 M26.244,14.171H6.488c-1.01,0-1.829,0.819-1.829,1.829s0.819,1.829,1.829,1.829h19.756c1.01,0,1.829-0.819,1.829-1.829
	S27.254,14.171,26.244,14.171z M26.244,22.951H6.488c-1.01,0-1.829,0.819-1.829,1.829c0,1.01,0.819,1.829,1.829,1.829h19.756
	c1.01,0,1.829-0.819,1.829-1.829C28.073,23.77,27.254,22.951,26.244,22.951z"/>
</svg>
