<?xml version="1.0" encoding="iso-8859-1"?>
<!-- Generator: Adobe Illustrator 19.0.0, SVG Export Plug-In . SVG Version: 6.00 Build 0)  -->
<svg version="1.1" id="&#x56FE;&#x5C42;_1" xmlns="http://www.w3.org/2000/svg" xmlns:xlink="http://www.w3.org/1999/xlink" x="0px"
	 y="0px" viewBox="0 0 32 32" style="enable-background:new 0 0 32 32;" xml:space="preserve">
<path style="fill-rule:evenodd;clip-rule:evenodd;fill:currentColor;" d="M25.375,31H6.625c-2.071,0-3.75-1.679-3.75-3.75V8.5
	c0-2.071,1.679-3.75,3.75-3.75h2.813V2.875h2.525C12.775,1.759,14.269,1,16,1s3.225,0.759,4.037,1.875h2.525V4.75h2.813
	c2.071,0,3.75,1.679,3.75,3.75v18.75C29.125,29.321,27.446,31,25.375,31z M20.687,4.75h-2.083c0-1.035-1.166-1.875-2.604-1.875
	c-1.438,0-2.604,0.84-2.604,1.875h-2.083V8.5h9.375V4.75z M27.25,8.5c0-1.035-0.839-1.875-1.875-1.875h-2.813v3.75H9.437v-3.75
	H6.625c-1.035,0-1.875,0.84-1.875,1.875v18.75c0,1.035,0.839,1.875,1.875,1.875h18.75c1.036,0,1.875-0.84,1.875-1.875V8.5z
	 M22.562,25.375H9.437c-0.518,0-0.938-0.42-0.938-0.938c0-0.518,0.42-0.938,0.938-0.938h13.125c0.518,0,0.938,0.42,0.938,0.938
	C23.5,24.955,23.08,25.375,22.562,25.375z M22.562,20.688H9.437c-0.518,0-0.938-0.42-0.938-0.938c0-0.518,0.42-0.938,0.938-0.938
	h13.125c0.518,0,0.938,0.42,0.938,0.938C23.5,20.268,23.08,20.688,22.562,20.688z M22.562,16H9.437C8.92,16,8.5,15.58,8.5,15.063
	c0-0.518,0.42-0.938,0.938-0.938h13.125c0.518,0,0.938,0.42,0.938,0.938C23.5,15.58,23.08,16,22.562,16z"/>
</svg>
