<?xml version="1.0" encoding="iso-8859-1"?>
<!-- Generator: Adobe Illustrator 19.0.0, SVG Export Plug-In . SVG Version: 6.00 Build 0)  -->
<svg version="1.1" id="&#x56FE;&#x5C42;_1" xmlns="http://www.w3.org/2000/svg" xmlns:xlink="http://www.w3.org/1999/xlink" x="0px"
	 y="0px" viewBox="0 0 32 32" style="enable-background:new 0 0 32 32;" xml:space="preserve">
<g>
	<g id="XMLID_58_">
		<path id="XMLID_59_" style="fill:currentColor;" d="M27.029,9.121h-5.121c0.577-0.321,1.117-0.694,1.568-1.111
			c2.048-1.894,2.419-4.622,0.825-6.096C23.634,1.299,22.728,1,21.751,1c-1.358,0-2.854,0.575-4.046,1.676
			C17.013,3.316,16.422,4.14,16,5.005c-0.423-0.865-1.013-1.689-1.705-2.329C13.104,1.575,11.607,1,10.249,1
			C9.271,1,8.366,1.299,7.698,1.914C6.106,3.388,6.476,6.117,8.524,8.01c0.451,0.417,0.99,0.789,1.567,1.111H4.971
			c-1.213,0-2.206,0.984-2.206,2.188v7.658h12.132v-8.887c0.403-0.109,0.763-0.282,1.048-0.545C15.966,9.515,15.98,9.492,16,9.472
			c0.02,0.02,0.034,0.043,0.055,0.062c0.285,0.263,0.645,0.437,1.048,0.545v8.887h12.132v-7.658
			C29.235,10.105,28.243,9.121,27.029,9.121z M14.42,7.891c-0.001,0.001-0.149,0.092-0.562,0.092c-1.176,0-2.809-0.691-3.799-1.606
			C9.249,5.628,8.96,4.797,8.96,4.27c0-0.47,0.206-0.66,0.273-0.721c0.298-0.276,0.764-0.316,1.016-0.316
			c0.843,0,1.781,0.403,2.511,1.076C14.14,5.585,14.613,7.51,14.42,7.891z M17.615,7.922c-0.001,0-0.002,0.001-0.002,0.001
			c-0.218-0.44,0.257-2.347,1.627-3.614c0.73-0.674,1.668-1.076,2.511-1.076c0.253,0,0.718,0.041,1.016,0.316
			c0.068,0.063,0.274,0.253,0.274,0.722c0,0.527-0.288,1.356-1.097,2.106c-0.99,0.914-2.625,1.606-3.801,1.606
			C17.802,7.983,17.642,7.922,17.615,7.922z M17.103,31h9.927c1.213,0,2.206-0.984,2.206-2.188v-7.658H17.103V31z M2.765,28.812
			C2.765,30.016,3.757,31,4.971,31h9.927v-9.846H2.765V28.812z"/>
	</g>
</g>
</svg>
