<?xml version="1.0" encoding="iso-8859-1"?>
<!-- Generator: Adobe Illustrator 19.0.0, SVG Export Plug-In . SVG Version: 6.00 Build 0)  -->
<svg version="1.1" id="&#x56FE;&#x5C42;_1" xmlns="http://www.w3.org/2000/svg" xmlns:xlink="http://www.w3.org/1999/xlink" x="0px"
	 y="0px" viewBox="0 0 32 32" style="enable-background:new 0 0 32 32;" xml:space="preserve">
<path style="fill:currentColor;" d="M31,16.231c0-2.573-1.573-4.762-3.81-5.722c-1.267-4.956-5.78-8.627-11.168-8.627
	c-5.383,0-9.891,3.663-11.164,8.611C2.596,11.442,1,13.641,1,16.231c0,2.915,2.017,5.343,4.735,6.042h0.387v-7.579
	c0-5.425,3.946-10.619,9.9-10.619c5.968,0,9.9,5.195,9.9,10.619v5.254c-0.274,4.091-3.541,7.376-7.647,7.711
	c-0.249-0.744-0.949-1.284-1.782-1.284c-1.042,0-1.886,0.838-1.886,1.871c0,1.034,0.844,1.872,1.886,1.872
	c0.702,0,1.307-0.384,1.632-0.948c4.304-0.232,7.877-3.201,8.979-7.186C29.385,21.043,31,18.836,31,16.231z"/>
</svg>
