<?xml version="1.0" encoding="iso-8859-1"?>
<!-- Generator: Adobe Illustrator 19.0.0, SVG Export Plug-In . SVG Version: 6.00 Build 0)  -->
<svg version="1.1" id="&#x56FE;&#x5C42;_1" xmlns="http://www.w3.org/2000/svg" xmlns:xlink="http://www.w3.org/1999/xlink" x="0px"
	 y="0px" viewBox="0 0 32 32" style="enable-background:new 0 0 32 32;" xml:space="preserve">
<path style="fill-rule:evenodd;clip-rule:evenodd;fill:currentColor;" d="M31,12.008v1.078c-0.325-0.116-0.67-0.19-1.034-0.19
	c-1.714,0-3.103,1.389-3.103,3.103s1.389,3.103,3.103,3.103c0.365,0,0.709-0.074,1.034-0.19v1.078v5.319H1v-5.319v-1.078
	c0.325,0.116,0.67,0.19,1.034,0.19c1.714,0,3.103-1.389,3.103-3.103s-1.389-3.103-3.103-3.103c-0.365,0-0.709,0.074-1.034,0.19
	v-1.078V6.69h30V12.008z M28.931,8.759H3.069v3.25C4.851,12.47,6.172,14.074,6.172,16s-1.322,3.53-3.103,3.992v3.25h25.862v-3.25
	c-1.782-0.461-3.103-2.066-3.103-3.992s1.322-3.53,3.103-3.992V8.759z"/>
</svg>
