<?xml version="1.0" encoding="iso-8859-1"?>
<!-- Generator: Adobe Illustrator 19.0.0, SVG Export Plug-In . SVG Version: 6.00 Build 0)  -->
<svg version="1.1" id="&#x56FE;&#x5C42;_1" xmlns="http://www.w3.org/2000/svg" xmlns:xlink="http://www.w3.org/1999/xlink" x="0px"
	 y="0px" viewBox="0 0 32 32" style="enable-background:new 0 0 32 32;" xml:space="preserve">
<path style="fill-rule:evenodd;clip-rule:evenodd;fill:currentColor;" d="M25.375,31H6.625c-2.071,0-3.75-1.679-3.75-3.75V8.5
	c0-2.071,1.679-3.75,3.75-3.75h2.813V2.875h2.525C12.775,1.759,14.269,1,16,1s3.225,0.759,4.037,1.875h2.525V4.75h2.813
	c2.071,0,3.75,1.679,3.75,3.75v18.75C29.125,29.321,27.446,31,25.375,31z M20.687,4.75h-2.083c0-1.035-1.166-1.875-2.604-1.875
	c-1.438,0-2.604,0.84-2.604,1.875h-2.083V8.5h9.375V4.75z M27.25,8.5c0-1.035-0.839-1.875-1.875-1.875h-2.813v3.75H9.437v-3.75
	H6.625c-1.035,0-1.875,0.84-1.875,1.875v18.75c0,1.036,0.839,1.875,1.875,1.875h18.75c1.036,0,1.875-0.84,1.875-1.875V8.5z
	 M14.732,23.448l-3.428-9.113h1.763l2.225,6.509c0.181,0.522,0.288,0.959,0.321,1.31h0.041c0.055-0.461,0.151-0.887,0.288-1.277
	l2.332-6.542h1.697l-3.609,9.113H14.732z"/>
</svg>
